<?xml version="1.0" encoding="utf-8"?>
<!-- Generator: Adobe Illustrator 24.1.2, SVG Export Plug-In . SVG Version: 6.00 Build 0)  -->
<svg version="1.1" id="Layer_1" xmlns="http://www.w3.org/2000/svg" xmlns:xlink="http://www.w3.org/1999/xlink" x="0px" y="0px"
	 viewBox="0 0 292.7 36.7" style="enable-background:new 0 0 292.7 36.7;" xml:space="preserve">
<style type="text/css">
	.st0{fill:#FFFFFF;}
</style>
<g>
	<path class="st0" d="M10,36.2V7.6H0v-6h27.2v6h-10v28.6H10z"/>
	<path class="st0" d="M30.8,1.6h6.9v13.5h0.1c1.4-3.2,4.2-5.1,8.1-5.1c5.7,0,9,3.7,9,9.6v16.5h-7v-15c0-3.3-1.6-5.3-4.8-5.3
		c-3.3,0-5.2,2.3-5.2,5.7v14.7h-7V1.6z"/>
	<path class="st0" d="M58.3,23.3c0-8.3,5-13.4,12.7-13.4s12.7,5,12.7,13.4c0,8.5-5,13.4-12.7,13.4S58.3,31.7,58.3,23.3z M76.7,23.3
		c0-5.1-2.2-8-5.6-8s-5.6,2.9-5.6,8c0,5.1,2.2,8,5.6,8C74.5,31.4,76.7,28.5,76.7,23.3z"/>
	<path class="st0" d="M87.4,10.5h6.8v4.6h0.1c1.1-3.1,3.8-5.1,7.3-5.1c3.7,0,6.3,1.9,7.2,5.3h0.1c1.1-3.2,4.2-5.3,8-5.3
		c5,0,8.4,3.4,8.4,8.6v17.5h-7V20.4c0-3-1.5-4.6-4.2-4.6c-2.7,0-4.4,1.9-4.4,4.8v15.6h-6.7v-16c0-2.8-1.6-4.4-4.1-4.4
		c-2.7,0-4.5,2-4.5,4.9v15.5h-7V10.5z"/>
	<path class="st0" d="M128.7,28.8c0-4.7,3.6-7.4,10-7.8l6.5-0.4v-1.7c0-2.4-1.7-3.8-4.3-3.8c-2.6,0-4.3,1.3-4.6,3.2h-6.4
		c0.3-5,4.5-8.4,11.3-8.4c6.6,0,10.9,3.4,10.9,8.6v17.6h-6.8v-3.9h-0.1c-1.4,2.7-4.6,4.3-7.8,4.3C132.4,36.6,128.7,33.4,128.7,28.8z
		 M145.2,26.7v-1.9l-5.4,0.3c-2.6,0.2-4.1,1.4-4.1,3.2c0,1.9,1.6,3.1,4,3.1C142.6,31.5,145.2,29.5,145.2,26.7z"/>
	<path class="st0" d="M166.8,9.9c6.6,0,10.7,3.4,10.8,8.4h-6.4c-0.2-2.1-1.8-3.5-4.4-3.5c-2.4,0-4,1.1-4,2.8c0,1.3,1,2.2,3.5,2.8
		l4.4,0.9c5.4,1.1,7.6,3.2,7.6,7c0,5.1-4.6,8.4-11.2,8.4c-7.1,0-11.2-3.3-11.6-8.4h6.8c0.4,2.3,2,3.4,4.8,3.4c2.6,0,4.3-1.1,4.3-2.8
		c0-1.4-0.9-2.1-3.4-2.7l-4.4-0.9c-5-1.1-7.5-3.5-7.5-7.4C156.1,13.1,160.3,9.9,166.8,9.9z"/>
	<path class="st0" d="M214.8,36.2V21.6h-15.6v14.6h-7.2V1.6h7.2v14h15.6v-14h7.2v34.5H214.8z"/>
	<path class="st0" d="M226.3,23.3c0-8.3,5-13.4,12.7-13.4c7.7,0,12.7,5,12.7,13.4c0,8.5-5,13.4-12.7,13.4
		C231.2,36.7,226.3,31.7,226.3,23.3z M230.5,3.4c0-1.9,1.5-3.4,3.4-3.4c1.9,0,3.5,1.5,3.5,3.4c0,1.9-1.6,3.4-3.5,3.4
		C232.1,6.8,230.5,5.3,230.5,3.4z M244.6,23.3c0-5.1-2.2-8-5.6-8c-3.4,0-5.6,2.9-5.6,8c0,5.1,2.2,8,5.6,8
		C242.4,31.4,244.6,28.5,244.6,23.3z M240.6,3.4c0-1.9,1.5-3.4,3.5-3.4c1.9,0,3.4,1.5,3.4,3.4c0,1.9-1.5,3.4-3.4,3.4
		C242.1,6.8,240.6,5.3,240.6,3.4z"/>
	<path class="st0" d="M255.5,1.6h7v34.5h-7V1.6z"/>
	<path class="st0" d="M267.3,1.6h7v34.5h-7V1.6z"/>
	<path class="st0" d="M287.9,4.6v5.9h4.7v5.3h-4.7V28c0,2,1,2.9,3,2.9c0.6,0,1.3,0,1.7-0.1V36c-0.7,0.2-1.9,0.3-3.3,0.3
		c-6,0-8.4-2-8.4-7V15.8h-3.6v-5.3h3.6V4.6H287.9z"/>
</g>
</svg>
